<svg xmlns="http://www.w3.org/2000/svg" viewBox="0 0 640 360" role="img" aria-labelledby="title desc">
  <title>Community learning illustration</title>
  <desc>People collaborating around a shared device</desc>
  <defs>
    <linearGradient id="sunset" x1="0" y1="0" x2="1" y2="1">
      <stop offset="0%" stop-color="#f97316" />
      <stop offset="100%" stop-color="#ec4899" />
    </linearGradient>
  </defs>
  <rect width="640" height="360" fill="#0f172a" />
  <rect x="32" y="48" width="576" height="264" rx="40" fill="url(#sunset)" opacity="0.6" />
  <g transform="translate(200 120)">
    <path d="M60 140c-24 0-44-20-44-44s20-44 44-44 44 20 44 44-20 44-44 44z" fill="rgba(248,250,252,0.9)" />
    <path d="M60 68c-24 0-44-20-44-44S36 0 60 0s44 20 44 44-20 44-44 44z" fill="#f8fafc" opacity="0.7" />
    <rect x="24" y="132" width="72" height="16" rx="8" fill="#0f172a" opacity="0.4" />
  </g>
  <g transform="translate(340 120)">
    <rect x="-32" y="24" width="192" height="120" rx="28" fill="rgba(15,23,42,0.75)" />
    <rect x="-20" y="36" width="168" height="96" rx="20" fill="#f8fafc" opacity="0.85" />
    <rect x="-4" y="56" width="64" height="12" rx="6" fill="#0f172a" opacity="0.6" />
    <rect x="-4" y="76" width="112" height="12" rx="6" fill="#ec4899" opacity="0.8" />
    <rect x="-4" y="96" width="88" height="12" rx="6" fill="#f97316" opacity="0.8" />
  </g>
  <circle cx="520" cy="120" r="40" fill="rgba(248,250,252,0.9)" />
  <circle cx="520" cy="120" r="24" fill="#0f172a" opacity="0.6" />
  <rect x="480" y="220" width="120" height="24" rx="12" fill="#f8fafc" opacity="0.85" />
</svg>
