<?xml version="1.0" encoding="UTF-8"?>
<svg version="1.1" xmlns="http://www.w3.org/2000/svg" width="625" height="529">
<path d="M0 0 C1.28497567 0.63653173 2.56927525 1.27442841 3.85328674 1.91290283 C4.92618627 2.44552671 4.92618627 2.44552671 6.02076054 2.98891068 C8.19607689 4.10016537 10.2410879 5.32312919 12.27734375 6.671875 C13.0252417 7.16316895 13.77313965 7.65446289 14.54370117 8.16064453 C15.33365479 8.68513184 16.1236084 9.20961914 16.9375 9.75 C18.70253123 10.90975833 20.46818648 12.06856737 22.234375 13.2265625 C23.16572266 13.83790039 24.09707031 14.44923828 25.05664062 15.07910156 C30.2435533 18.46419022 35.46669424 21.79252026 40.6875 25.125 C47.70048734 29.60522569 54.70741642 34.09366706 61.6875 38.625 C68.10122997 42.78767811 74.54583202 46.90032839 81 51 C87.45416962 55.09967265 93.89868137 59.21245684 100.3125 63.375 C111.50612341 70.63868824 122.75708772 77.8129483 134 85 C158.37659535 100.582782 158.37659535 100.582782 169.48828125 107.78955078 C179.96076922 114.57514229 190.48604579 121.27893604 201 128 C225.73264233 143.81038567 225.73264233 143.81038567 236.67724609 150.91699219 C243.32847415 155.22860039 250.02223273 159.47318429 256.7253418 163.70361328 C258.44919615 164.79576073 260.15410861 165.91842058 261.83805752 167.07114601 C264.26479628 168.55150967 266.17188644 169.4847518 268.77604008 170.45218468 C273.44199819 172.43589193 277.16128387 174.70495701 280 179 C282.75072838 188.12698478 281.93408573 198.27019989 281.74098432 207.72167087 C281.67594598 211.7147034 281.69814547 215.70739215 281.70951843 219.70080566 C281.71736817 226.61181661 281.67048155 233.52069659 281.58595085 240.43117142 C281.46381964 250.42205486 281.42495755 260.41191239 281.40613098 270.40346138 C281.37333561 286.6150982 281.27360762 302.82560016 281.1315918 319.03662109 C280.99381605 334.78005308 280.88768518 350.52317637 280.82397461 366.26708984 C280.82003376 367.23822317 280.8160929 368.20935649 280.81203263 369.2099181 C280.79245646 374.08201704 280.77350099 378.95411817 280.75485408 383.82622075 C280.59945988 424.21826978 280.33535842 464.60906983 280 505 C276.1084036 503.49142911 272.69173405 501.72197779 269.125 499.54296875 C268.56678055 499.20328568 268.0085611 498.8636026 267.4334259 498.5136261 C265.61995067 497.4086892 263.80991117 496.29826354 262 495.1875 C260.74844183 494.42293016 259.49673155 493.65860926 258.24487305 492.89453125 C254.4928989 490.60233772 250.74598232 488.3019684 247 486 C245.89479004 485.32146973 244.78958008 484.64293945 243.65087891 483.94384766 C240.70289868 482.13221658 237.75692243 480.31740682 234.8125 478.5 C233.48702148 477.68245239 233.48702148 477.68245239 232.13476562 476.84838867 C230.93303711 476.10359253 230.93303711 476.10359253 229.70703125 475.34375 C229.0106958 474.91255859 228.31436035 474.48136719 227.59692383 474.03710938 C226 473 226 473 225 472 C224.90345518 470.5925723 224.87628135 469.18031869 224.87695217 467.7695837 C224.87496112 466.85145962 224.87297007 465.93333553 224.87091869 464.9873895 C224.87383153 463.96698294 224.87674437 462.94657638 224.87974548 461.89524841 C224.87846385 460.28300537 224.87846385 460.28300537 224.87715632 458.63819176 C224.87549833 455.00674348 224.88102808 451.37534056 224.88647461 447.74389648 C224.88675644 445.15264894 224.88659883 442.56140131 224.8860321 439.97015381 C224.88550669 434.37601177 224.88865534 428.78188135 224.89426994 423.18774223 C224.90238254 415.09946693 224.90499992 407.01119726 224.90625793 398.92291833 C224.90844883 385.80155499 224.91510995 372.68019786 224.92456055 359.55883789 C224.93373368 346.80948925 224.940815 334.06014229 224.94506836 321.31079102 C224.94533108 320.5254739 224.94559381 319.74015679 224.94586449 318.93104219 C224.94716949 314.99150209 224.94843321 311.05196199 224.94967639 307.11242187 C224.96005019 274.40827673 224.97766953 241.70413919 225 209 C224.217957 208.69405914 223.435914 208.38811829 222.63017273 208.07290649 C220.16702853 207.06813469 218.07976727 205.93560838 215.83203125 204.5234375 C215.03321533 204.02489258 214.23439941 203.52634766 213.41137695 203.01269531 C212.12493286 202.20203613 212.12493286 202.20203613 210.8125 201.375 C208.94819169 200.21049708 207.08359398 199.04645739 205.21875 197.8828125 C204.22359375 197.26051758 203.2284375 196.63822266 202.203125 195.99707031 C197.00262713 192.75468673 191.78476318 189.54061873 186.5652771 186.32891846 C184.8284646 185.25982698 183.09253121 184.18931907 181.35668945 183.11865234 C179.76667114 182.13952881 179.76667114 182.13952881 178.14453125 181.140625 C176.72684448 180.26712402 176.72684448 180.26712402 175.28051758 179.37597656 C173.0779521 178.00599395 173.0779521 178.00599395 171 177 C171 264.78 171 352.56 171 443 C165.555 439.535 165.555 439.535 160 436 C157.0875006 434.22154871 154.17184411 432.45031492 151.25 430.6875 C144.25499049 426.44084471 137.41454707 422.0111267 130.6328125 417.43359375 C126.23816323 414.47229466 121.77405864 411.62100727 117.30175781 408.77880859 C113.10043382 406.10043382 113.10043382 406.10043382 112 405 C111.90323586 402.97505378 111.87813014 400.94667458 111.87974548 398.91941833 C111.87889106 398.27744619 111.87803663 397.63547404 111.87715632 396.9740482 C111.87549979 394.80745946 111.88102567 392.64094693 111.88647461 390.47436523 C111.88675647 388.92743939 111.88659877 387.38051341 111.8860321 385.83358765 C111.88574408 381.62095968 111.89164151 377.40835994 111.89860606 373.19573855 C111.90483888 368.79814212 111.90544334 364.40054511 111.90663147 360.00294495 C111.909745 351.66959487 111.91795868 343.33625785 111.92798096 335.00291353 C111.93914143 325.51818746 111.94465238 316.03346078 111.94967639 306.54872978 C111.96014127 287.03247911 111.97774113 267.5162406 112 248 C111.21136566 247.69216583 110.42273132 247.38433167 109.61019897 247.06716919 C107.31560789 246.129035 105.59405934 245.18375807 103.6015625 243.7421875 C102.96847168 243.2891626 102.33538086 242.8361377 101.68310547 242.36938477 C101.00393066 241.87623779 100.32475586 241.38309082 99.625 240.875 C98.12046477 239.79723682 96.61521552 238.72046993 95.109375 237.64453125 C94.29662109 237.06268066 93.48386719 236.48083008 92.64648438 235.88134766 C87.75098048 232.40120439 82.81049638 228.98556914 77.875 225.5625 C75.95544309 224.23088104 74.03615925 222.89886833 72.1171875 221.56640625 C71.29847168 220.99865479 70.47975586 220.43090332 69.63623047 219.84594727 C66.40866055 217.58593095 63.20624219 215.29017299 60 213 C59.67 266.79 59.34 320.58 59 376 C55.37193866 374.54877547 52.25771216 373.12455815 48.88671875 371.234375 C47.89704102 370.68048096 46.90736328 370.12658691 45.88769531 369.5559082 C44.83163086 368.9599585 43.77556641 368.36400879 42.6875 367.75 C41.59405273 367.13535889 40.50060547 366.52071777 39.37402344 365.88745117 C27.84319638 359.38463943 16.39543377 352.73718107 5 346 C4.13872507 345.5941482 3.27745015 345.18829641 2.39007598 344.77014607 C0 343 0 343 -0.62099248 340.42807847 C-0.61909388 339.38726505 -0.61719528 338.34645162 -0.61523914 337.2740984 C-0.62519439 336.07332057 -0.63514963 334.87254274 -0.64540654 333.63537771 C-0.63114045 332.29612365 -0.61641245 330.95687446 -0.60127258 329.61763 C-0.60345179 328.20022942 -0.60782754 326.78283078 -0.61421841 325.36544293 C-0.62543131 321.46122482 -0.60535486 317.55768881 -0.58032811 313.65355766 C-0.55878865 309.44702692 -0.5660389 305.24053641 -0.56983948 301.03396606 C-0.57246461 293.74275367 -0.55674216 286.45176453 -0.52865028 279.16060829 C-0.48806039 268.61878561 -0.4749977 258.07707117 -0.46871033 247.5351788 C-0.45776004 230.43281512 -0.42446596 213.3305705 -0.37719727 196.22827148 C-0.33132065 179.61239214 -0.29591946 162.9965451 -0.2746582 146.38061523 C-0.27334459 145.35686392 -0.27203097 144.33311261 -0.27067754 143.27833853 C-0.26415248 138.1426142 -0.25783391 133.00688963 -0.25161803 127.87116492 C-0.19976217 85.24736079 -0.11167694 42.62368653 0 0 Z M59 106 C58.77124415 112.99195237 58.61396914 119.98293631 58.50561523 126.9777832 C58.46043625 129.35542863 58.39907719 131.73282511 58.32104492 134.10961914 C58.21148015 137.53333935 58.16074995 140.95374914 58.12109375 144.37890625 C58.07464218 145.43646622 58.02819061 146.49402618 57.98033142 147.58363342 C57.96810021 153.39171524 57.96810021 153.39171524 60.93798828 158.18748474 C63.2182513 159.97915112 65.51409804 161.51106999 68 163 C69.19592527 163.83416376 70.38735751 164.67488618 71.5703125 165.52734375 C72.7533886 166.33340653 73.93835405 167.13670187 75.125 167.9375 C76.49923039 168.87291614 77.87289096 169.80916974 79.24609375 170.74609375 C79.9922998 171.2551123 80.73850586 171.76413086 81.50732422 172.28857422 C87.4298643 176.35488234 93.309153 180.48440911 99.19384766 184.60522461 C100.13405762 185.26143799 101.07426758 185.91765137 102.04296875 186.59375 C102.87852295 187.17833984 103.71407715 187.76292969 104.57495117 188.36523438 C107.00215524 190.00145288 109.47672789 191.51714519 112 193 C115.97852621 164.7508697 115.97852621 164.7508697 110.00048828 138.19140625 C104.95540944 132.76224299 98.78918409 129.88701597 91.95800781 127.22998047 C87.63554471 125.43264066 84.11059002 122.84176394 80.375 120.0625 C79.12488114 119.1976248 77.87106995 118.33805753 76.61328125 117.484375 C74.12374854 115.7765731 71.64303608 114.05682357 69.16796875 112.328125 C68.2555542 111.69185181 68.2555542 111.69185181 67.32470703 111.04272461 C65.67486175 109.89094151 64.02681734 108.73658 62.37890625 107.58203125 C60.33737395 105.90770779 60.33737395 105.90770779 59 106 Z " fill="#FFFFFF" transform="translate(329,12)"/>
<path d="M0 0 C0.39565726 8.17079477 0.69673896 16.33753713 0.88080692 24.51556969 C0.9692101 28.31445975 1.08876385 32.10676143 1.2824707 35.90185547 C2.49455266 60.29194054 2.49455266 60.29194054 -1.52505493 66.26693726 C-5.41181467 69.81804979 -9.87942839 71.58970676 -14.82565308 73.22314453 C-17.96256853 74.34390861 -20.58748704 76.05674378 -23.36328125 77.87890625 C-24.82386963 78.78177368 -24.82386963 78.78177368 -26.31396484 79.70288086 C-27.30348145 80.31655518 -28.29299805 80.93022949 -29.3125 81.5625 C-31.56077253 82.95121693 -33.80935153 84.3394185 -36.05859375 85.7265625 C-36.91363495 86.25403328 -36.91363495 86.25403328 -37.78594971 86.79216003 C-44.13125954 90.7030899 -50.50145555 94.57280955 -56.875 98.4375 C-57.45338623 98.78826599 -58.03177246 99.13903198 -58.62768555 99.50042725 C-61.56675958 101.28267733 -64.50618231 103.06435121 -67.44580078 104.84570312 C-73.40342881 108.45623769 -79.35784716 112.07206161 -85.3125 115.6875 C-85.89621368 116.04187134 -86.47992737 116.39624268 -87.08132935 116.76135254 C-97.79448444 123.26534987 -108.50139536 129.77956924 -119.20556641 136.29833984 C-123.96995081 139.19959437 -128.73501498 142.09973207 -133.5 145 C-135.41666981 146.16666151 -137.33333648 147.33332817 -139.25 148.5 C-150.75 155.5 -150.75 155.5 -153.62548828 157.25024414 C-155.54059022 158.41599372 -157.45562937 159.58184646 -159.37060547 160.74780273 C-164.18570084 163.67935332 -169.00190161 166.60905792 -173.8203125 169.53515625 C-174.79291016 170.12619141 -175.76550781 170.71722656 -176.76757812 171.32617188 C-178.56011846 172.41541888 -180.35303023 173.50405513 -182.14648438 174.59179688 C-183.94718442 175.68639349 -185.72664913 176.81636089 -187.48852539 177.97241211 C-190.31562217 179.73233919 -193.22896078 180.91348695 -196.32202148 182.13891602 C-202.44417368 184.82335545 -207.91871399 187.55573162 -212 193 C-215.35719381 203.00725598 -214.38285931 214.08657659 -213.90551758 224.48773193 C-213.7497057 228.38190433 -213.71531532 232.27708137 -213.66992188 236.17382812 C-213.56369709 243.78851391 -213.32519035 251.39117969 -213 259 C-209.08109497 256.81287127 -205.16349326 254.62341772 -201.24609375 252.43359375 C-200.15373413 251.82398804 -199.06137451 251.21438232 -197.93591309 250.58630371 C-190.60137595 246.48444111 -183.31451018 242.30848084 -176.0625 238.0625 C-174.95640381 237.41539062 -173.85030762 236.76828125 -172.71069336 236.1015625 C-171.84581299 235.59367188 -170.98093262 235.08578125 -170.08984375 234.5625 C-163.78429581 230.8678669 -157.45705564 227.21147319 -151.125 223.5625 C-150.04484619 222.93996338 -148.96469238 222.31742676 -147.85180664 221.67602539 C-145.66203666 220.41423174 -143.47217645 219.15259466 -141.28222656 217.89111328 C-135.85340058 214.76319852 -130.42680719 211.63141552 -125 208.5 C-122.83334417 207.24998121 -120.6666775 205.99998122 -118.5 204.75 C-117.4275 204.13125 -116.355 203.5125 -115.25 202.875 C-105.5 197.25 -105.5 197.25 -102.24951172 195.37475586 C-100.08442929 194.12564482 -97.91939018 192.87645871 -95.75439453 191.62719727 C-90.31384294 188.48797691 -84.87252784 185.35009437 -79.4296875 182.21484375 C-68.93767603 176.16944667 -58.45542923 170.10848025 -48 164 C-39.38127202 158.96834008 -30.7593606 153.94228581 -22.125 148.9375 C-21.06152344 148.31810547 -19.99804688 147.69871094 -18.90234375 147.06054688 C-17.88527344 146.47208984 -16.86820313 145.88363281 -15.8203125 145.27734375 C-14.93617676 144.76421631 -14.05204102 144.25108887 -13.14111328 143.72241211 C-10.38777854 142.21263622 -7.6139176 140.79191545 -4.80368042 139.39234924 C-3.90389906 138.94382882 -3.0041177 138.4953084 -2.07707024 138.03319645 C-1.39163706 137.69224162 -0.70620388 137.35128679 0 137 C0.63191209 163.58110736 1.10740335 190.16108336 1.39892864 216.74819946 C1.53791874 229.09478417 1.72721509 241.43669223 2.03686523 253.78027344 C2.30677393 264.54481285 2.48034289 275.30596623 2.54038936 286.07379532 C2.57547991 291.77278385 2.65728317 297.46209115 2.85471153 303.15795898 C4.04544334 338.86021633 4.04544334 338.86021633 -2.6510582 346.44692993 C-8.70621108 352.1168893 -16.12238018 355.17423509 -23.87061119 357.85292053 C-27.97185066 359.35623248 -31.37005214 361.46065733 -34.9375 363.9375 C-36.16086778 364.7172745 -37.38713709 365.49252892 -38.6171875 366.26171875 C-39.61830566 366.89086182 -39.61830566 366.89086182 -40.63964844 367.53271484 C-45.92042534 370.81544852 -51.24498804 374.02723329 -56.5625 377.25 C-57.47011078 377.80016785 -57.47011078 377.80016785 -58.39605713 378.3614502 C-60.83634407 379.84057432 -63.27674346 381.31951253 -65.71737671 382.79806519 C-71.42050815 386.25340051 -77.11738001 389.71897677 -82.8125 393.1875 C-84.68749459 394.32943596 -86.56249456 395.4713631 -88.4375 396.61328125 C-89.3553125 397.17225098 -90.273125 397.7312207 -91.21875 398.30712891 C-94.019975 400.01215824 -96.82233353 401.71531005 -99.625 403.41796875 C-109.66466865 409.51922424 -119.68687074 415.64743985 -129.6875 421.8125 C-142.23876642 429.54809442 -154.83676984 437.20483476 -167.44580078 444.84570312 C-173.40342881 448.45623769 -179.35784716 452.07206161 -185.3125 455.6875 C-185.89621368 456.04187134 -186.47992737 456.39624268 -187.08132935 456.76135254 C-196.86463074 462.70083214 -206.64322841 468.64800464 -216.41796875 474.6015625 C-220.21067342 476.91144027 -224.00510639 479.21844386 -227.80078125 481.5234375 C-229.74221953 482.70307228 -231.68362596 483.8827595 -233.625 485.0625 C-234.56408203 485.63266846 -235.50316406 486.20283691 -236.47070312 486.7902832 C-241.3458191 489.75564231 -246.20480045 492.7442122 -251.04296875 495.76953125 C-252.01218262 496.37466553 -252.98139648 496.9797998 -253.97998047 497.60327148 C-255.83176532 498.76155477 -257.68115903 499.92367197 -259.52783203 501.09008789 C-260.35009277 501.60434326 -261.17235352 502.11859863 -262.01953125 502.6484375 C-262.74245361 503.10395996 -263.46537598 503.55948242 -264.21020508 504.02880859 C-266 505 -266 505 -268 505 C-268.39533353 495.7863083 -268.69660863 486.57556371 -268.88080692 477.35521889 C-268.96926199 473.07245499 -269.08895908 468.7955198 -269.2824707 464.51611328 C-270.49369898 437.00664944 -270.49369898 437.00664944 -266.47897339 430.55615234 C-262.64054435 426.87029232 -258.22805209 425.18452584 -253.18728638 423.70062256 C-249.9958789 422.67836407 -247.33007677 420.99986646 -244.49609375 419.234375 C-242.47690242 418.07232581 -240.45736763 416.91087325 -238.4375 415.75 C-229.94310062 410.85913459 -221.4623405 405.94612476 -213 401 C-201.45281274 394.25280507 -189.87097832 387.56660602 -178.28222656 380.89111328 C-172.85340058 377.76319852 -167.42680719 374.63141552 -162 371.5 C-159.83334417 370.24998121 -157.6666775 368.99998122 -155.5 367.75 C-154.4275 367.13125 -153.355 366.5125 -152.25 365.875 C-142.5 360.25 -142.5 360.25 -139.24951172 358.37475586 C-137.08442929 357.12564482 -134.91939018 355.87645871 -132.75439453 354.62719727 C-127.31384294 351.48797691 -121.87252784 348.35009437 -116.4296875 345.21484375 C-96.10311013 333.61021824 -96.10311013 333.61021824 -75.97265625 321.67324829 C-73 320 -73 320 -69.88601685 318.75523376 C-66.32390839 317.18199024 -63.80145306 315.72271404 -61 313 C-59.24171657 307.31426819 -59.45741693 301.81278257 -59.609375 295.91015625 C-59.60931862 294.23863407 -59.60396936 292.56710444 -59.59356689 290.89561462 C-59.58042209 286.51296866 -59.63881158 282.13412938 -59.71246338 277.75219727 C-59.77495521 273.27432697 -59.76931894 268.79658908 -59.76953125 264.31835938 C-59.77993121 255.54428272 -59.86595148 246.77305492 -60 238 C-63.45674331 240.03474043 -66.91207558 242.0718658 -70.3671875 244.109375 C-71.33164795 244.6770459 -72.2961084 245.2447168 -73.28979492 245.82958984 C-79.61569258 249.5619491 -85.89032963 253.36727118 -92.125 257.25 C-93.07898682 257.84296875 -94.03297363 258.4359375 -95.01586914 259.046875 C-95.78535889 259.52640625 -96.55484863 260.0059375 -97.34765625 260.5 C-103.72584719 264.4606783 -110.1424206 268.35776966 -116.5625 272.25 C-117.15020172 272.60635529 -117.73790344 272.96271057 -118.34341431 273.3298645 C-121.35034806 275.15292486 -124.35768445 276.97531965 -127.36523438 278.79736328 C-133.35004127 282.42347816 -139.33113083 286.0557185 -145.3125 289.6875 C-146.48795568 290.40112313 -147.66341141 291.11474618 -148.83886719 291.82836914 C-158.96595365 297.97705858 -169.08675275 304.13604809 -179.20556641 310.29833984 C-183.00782626 312.61371213 -186.81052956 314.92835553 -190.61328125 317.24291992 C-192.53652118 318.41355235 -194.45969835 319.5842879 -196.3828125 320.75512695 C-201.13553632 323.64859747 -205.88910103 326.54066682 -210.64453125 329.4296875 C-218.7096287 334.33134699 -226.7719586 339.23681167 -234.8046875 344.19140625 C-235.66639809 344.72272156 -235.66639809 344.72272156 -236.54551697 345.26477051 C-239.32179792 346.97694842 -242.09692137 348.69093487 -244.87036133 350.40771484 C-250.10326651 353.63849747 -255.35505939 356.83520779 -260.64453125 359.97265625 C-261.62397705 360.554104 -262.60342285 361.13555176 -263.61254883 361.73461914 C-266 363 -266 363 -268 363 C-268.35050337 335.90571067 -268.61496248 308.81176134 -268.77718258 281.71566105 C-268.85450935 269.1341324 -268.95991423 256.55401281 -269.1315918 243.97338867 C-269.28116781 233.00714427 -269.37788745 222.04192021 -269.41132742 211.07468408 C-269.43087476 205.26767714 -269.47675059 199.46358892 -269.58595085 193.65751839 C-269.68796275 188.18921883 -269.7191424 182.72503152 -269.69661522 177.25587082 C-269.70073412 175.25178964 -269.73047764 173.24756774 -269.78808212 171.24431038 C-270.19087098 156.51124459 -270.19087098 156.51124459 -266.54665112 152.33412623 C-262.99382501 149.44366556 -259.09712162 147.54582177 -254.88186467 145.81117046 C-252.02681404 144.58051197 -249.41719588 142.97530777 -246.76171875 141.3671875 C-244.73774693 140.20179059 -242.71298949 139.03775716 -240.6875 137.875 C-238.42055224 136.57034843 -236.15362576 135.26565987 -233.88671875 133.9609375 C-232.74509277 133.30448242 -231.6034668 132.64802734 -230.42724609 131.97167969 C-224.94844212 128.81974773 -219.47436113 125.65963997 -214 122.5 C-207.47770839 118.7362896 -200.95486232 114.97355375 -194.4296875 111.21484375 C-183.93767906 105.16944841 -173.45518324 99.10889781 -163 93 C-151.45270484 86.25298806 -139.87097973 79.56660682 -128.28222656 72.89111328 C-122.85340058 69.76319852 -117.42680719 66.63141552 -112 63.5 C-109.83334417 62.24998121 -107.6666775 60.99998122 -105.5 59.75 C-104.4275 59.13125 -103.355 58.5125 -102.25 57.875 C-66.5 37.25 -66.5 37.25 -63.24829102 35.37402344 C-61.08731012 34.12729744 -58.92634002 32.88055273 -56.76538086 31.63378906 C-51.26181149 28.45854117 -45.75803968 25.28364505 -40.25390625 22.109375 C-39.14337891 21.4687915 -38.03285156 20.82820801 -36.88867188 20.16821289 C-34.69626926 18.90384799 -32.50356786 17.64000103 -30.31054688 16.37670898 C-25.26933721 13.47120517 -20.23418434 10.55642826 -15.21484375 7.61328125 C-14.32917725 7.09540039 -13.44351074 6.57751953 -12.53100586 6.04394531 C-10.88774342 5.08211292 -9.24650284 4.11681477 -7.60766602 3.14746094 C-2.22318174 0 -2.22318174 0 0 0 Z " fill="#FFFFFF" transform="translate(280,12)"/>
</svg>
